<svg width="25" height="24" viewBox="0 0 25 24" fill="none" xmlns="http://www.w3.org/2000/svg">
<g clip-path="url(#clip0_238_817)">
<path d="M12.333 0C9.95964 0 7.63956 0.703788 5.66617 2.02236C3.69278 3.34094 2.15471 5.21509 1.24646 7.4078C0.338207 9.60051 0.100567 12.0133 0.56359 14.3411C1.02661 16.6689 2.1695 18.8071 3.84773 20.4853C5.52596 22.1635 7.66416 23.3064 9.99193 23.7694C12.3197 24.2324 14.7325 23.9948 16.9252 23.0866C19.1179 22.1783 20.9921 20.6402 22.3106 18.6668C23.6292 16.6935 24.333 14.3734 24.333 12C24.3296 8.81846 23.0642 5.76821 20.8145 3.51852C18.5648 1.26883 15.5146 0.00344108 12.333 0ZM17.333 13H13.333V17H11.333V13H7.33301V11H11.333V7H13.333V11H17.333V13Z" fill="#61A9FF"/>
</g>
<defs>
<clipPath id="clip0_238_817">
<rect width="24" height="24" fill="white" transform="translate(0.333008)"/>
</clipPath>
</defs>
</svg>
