<svg width="24" height="24" viewBox="0 0 24 24" fill="none" xmlns="http://www.w3.org/2000/svg">
<g clip-path="url(#clip0_238_991)">
<path d="M12.5663 24H8.71931L10.7193 16H6.58631C6.18688 15.9998 5.79303 15.9062 5.43623 15.7267C5.07943 15.5472 4.76957 15.2867 4.53141 14.966C4.29325 14.6454 4.1334 14.2734 4.06462 13.88C3.99584 13.4865 4.02005 13.0824 4.13531 12.7L7.97631 0H17.4433L14.4433 8H18.4663C18.924 8.00029 19.3731 8.1246 19.7658 8.35972C20.1585 8.59484 20.4802 8.93197 20.6966 9.33529C20.9131 9.73861 21.0162 10.193 20.995 10.6503C20.9738 11.1075 20.8291 11.5504 20.5763 11.932L12.5663 24Z" fill="white"/>
</g>
<defs>
<clipPath id="clip0_238_991">
<rect width="24" height="24" fill="white"/>
</clipPath>
</defs>
</svg>
