<svg width="24" height="24" viewBox="0 0 24 24" fill="none" xmlns="http://www.w3.org/2000/svg">
<g clip-path="url(#clip0_238_1036)">
<path d="M13.9997 24C13.2114 24.0024 12.4305 23.8483 11.7023 23.5465C10.9741 23.2447 10.3131 22.8013 9.75766 22.242C8.63892 21.1136 8.01122 19.5889 8.01122 18C8.01122 16.411 8.63892 14.8863 9.75766 13.758L13.9997 9.26096L18.2627 13.778C19.3716 14.9087 19.991 16.4305 19.9871 18.0143C19.9832 19.5981 19.3562 21.1167 18.2417 22.242C17.6862 22.8013 17.0252 23.2447 16.297 23.5465C15.5688 23.8483 14.7879 24.0024 13.9997 24ZM4.99966 12C4.34284 12.0016 3.69222 11.8729 3.08545 11.6215C2.47867 11.37 1.92779 11.0007 1.46466 10.535C0.532654 9.59449 0.00976562 8.32401 0.00976562 6.99996C0.00976563 5.67591 0.532654 4.40543 1.46466 3.46496L4.99966 0.00695801L8.52666 3.45696C9.46264 4.39645 9.98884 5.66814 9.99034 6.99431C9.99184 8.32047 9.46851 9.59335 8.53466 10.535C8.07163 11.0008 7.52076 11.3702 6.91396 11.6217C6.30716 11.8732 5.6565 12.0017 4.99966 12ZM19.9997 9.99996C19.4742 10.0013 18.9537 9.89844 18.4682 9.69727C17.9828 9.49609 17.5421 9.20062 17.1717 8.82796C16.4259 8.07566 16.0075 7.05925 16.0075 5.99996C16.0075 4.94067 16.4259 3.92426 17.1717 3.17196L19.9817 0.048958L22.8597 3.20496C23.5905 3.96036 23.9964 4.97194 23.9904 6.02298C23.9844 7.07402 23.567 8.08092 22.8277 8.82796C22.4572 9.20062 22.0165 9.49609 21.5311 9.69727C21.0456 9.89844 20.5251 10.0013 19.9997 9.99996Z" fill="white"/>
</g>
<defs>
<clipPath id="clip0_238_1036">
<rect width="24" height="24" fill="white"/>
</clipPath>
</defs>
</svg>
