<svg width="20" height="20" viewBox="0 0 20 20" fill="none" xmlns="http://www.w3.org/2000/svg">
<g clip-path="url(#clip0_238_1093)">
<path d="M17.5 9.16667V11.7317C17.5 12.6508 16.7525 13.3983 15.8333 13.3983C14.9142 13.3983 14.1667 12.6508 14.1667 11.7317V9.16667C12.6967 9.81 11.6667 11.2742 11.6667 12.9817C11.6667 14.6892 12.6967 16.1533 14.1667 16.7967V20H17.5V16.7967C18.97 16.1533 20 14.6892 20 12.9817C20 11.2742 18.97 9.81 17.5 9.16667ZM1.66667 7.48083H11.6667C11.6708 10.225 9.42583 12.4842 6.66667 12.4808C3.9075 12.4842 1.6625 10.225 1.66667 7.48083ZM12.5 20H0V17.5C0 15.1992 1.86583 13.3333 4.16667 13.3333H10.0217C10.13 15.1242 11.0483 16.7533 12.5 17.7642V20ZM12.5 5.81417H0.833333V4.1475H1.68583C1.885 1.9525 3.63833 0.199167 5.83333 0V3.31417H7.5V0C9.695 0.199167 11.4483 1.9525 11.6475 4.1475H12.5V5.81417Z" fill="#0E263E"/>
</g>
<defs>
<clipPath id="clip0_238_1093">
<rect width="20" height="20" fill="white"/>
</clipPath>
</defs>
</svg>
