<svg width="20" height="20" viewBox="0 0 20 20" fill="none" xmlns="http://www.w3.org/2000/svg">
<g clip-path="url(#clip0_238_1076)">
<path d="M6.66667 10C3.90917 10 1.66667 7.7575 1.66667 5C1.66667 2.2425 3.90917 0 6.66667 0C9.42417 0 11.6667 2.2425 11.6667 5C11.6667 7.7575 9.42417 10 6.66667 10ZM15.38 19.9783L14.8767 19.7267C13.9275 19.2525 10.8325 17.4733 10.8325 14.5V11.645C10.8325 10.745 11.4058 9.95083 12.2608 9.6675L15.4158 8.62167L18.5708 9.6675C19.425 9.95083 19.9992 10.745 19.9992 11.645V14.5C19.9992 17.8583 16.8625 19.3817 15.9017 19.7683L15.38 19.9783ZM9.16667 14.5V11.6675H4.16667C1.86917 11.6675 0 13.5367 0 15.8342V20.0008H12.21C10.7675 18.875 9.16667 17.0517 9.16667 14.5Z" fill="#0E263E"/>
</g>
<defs>
<clipPath id="clip0_238_1076">
<rect width="20" height="20" fill="white"/>
</clipPath>
</defs>
</svg>
