<svg width="24" height="25" viewBox="0 0 24 25" fill="none" xmlns="http://www.w3.org/2000/svg">
<g clip-path="url(#clip0_238_1157)">
<path d="M14.4141 13.7778L21.1591 20.5228C22.7704 18.6207 23.7463 16.2623 23.9501 13.7778H14.4141Z" fill="white"/>
<path d="M11.2934 13.4848L11.0004 13.1918V0.827759C9.11621 0.982161 7.29515 1.57956 5.68563 2.57126C4.07611 3.56297 2.72367 4.92093 1.73852 6.53447C0.753378 8.14801 0.1634 9.97149 0.0166694 11.8563C-0.130061 13.7411 0.170606 15.6339 0.89417 17.3805C1.61773 19.127 2.74372 20.6779 4.18037 21.9068C5.61702 23.1356 7.32369 24.0077 9.16129 24.4518C10.9989 24.896 12.9154 24.8996 14.7547 24.4626C16.594 24.0255 18.304 23.1601 19.7454 21.9368L11.2934 13.4848Z" fill="white"/>
<path d="M13 11.7778H23.95C23.7139 8.95263 22.4845 6.30254 20.4798 4.29791C18.4752 2.29328 15.8251 1.06382 13 0.827759V11.7778Z" fill="white"/>
</g>
<defs>
<clipPath id="clip0_238_1157">
<rect width="24" height="24" fill="white" transform="translate(0 0.777771)"/>
</clipPath>
</defs>
</svg>
