<svg width="24" height="25" viewBox="0 0 24 25" fill="none" xmlns="http://www.w3.org/2000/svg">
<g clip-path="url(#clip0_238_1163)">
<path d="M23.772 20.8833L21 23.8333V21.3333H3V3.33331H0.5L3.45 0.561313C3.754 0.257313 4.246 0.257313 4.55 0.561313L7.5 3.33331H5V17.8733C5.8 16.5283 6.785 14.5603 7.205 13.0733C8.736 7.65431 9.787 4.33331 12 4.33331C13.843 4.33331 14.881 6.65331 16.06 10.5523C15.66 10.4143 15.227 10.3333 14.75 10.3333C11.98 10.3333 10.601 12.9253 9.49 15.0103C9.159 15.6333 8.376 16.9513 8.091 17.3333C7.321 18.4873 6.5 19.3333 6.5 19.3333H8.5C9.456 19.3333 10.454 17.4573 11.256 15.9503C12.246 14.0903 13.181 12.3333 14.75 12.3333C16.319 12.3333 17.254 14.0903 18.244 15.9503C19.046 17.4573 20.044 19.3333 21 19.3333V16.8333L23.772 19.7833C24.076 20.0873 24.076 20.5793 23.772 20.8833Z" fill="white"/>
</g>
<defs>
<clipPath id="clip0_238_1163">
<rect width="24" height="24" fill="white" transform="translate(0 0.333313)"/>
</clipPath>
</defs>
</svg>
