<svg width="32" height="25" viewBox="0 0 32 25" fill="none" xmlns="http://www.w3.org/2000/svg">
<path d="M28 0.555542H4C1.79467 0.555542 0 2.35021 0 4.55554V24.5555H32V4.55554C32 2.35021 30.2053 0.555542 28 0.555542ZM10.6667 19.8889C6.98533 19.8889 4 16.9035 4 13.2222C4 9.99688 6.29067 7.30754 9.33333 6.69021V13.7742L14.3387 18.7795C13.2853 19.4769 12.024 19.8889 10.6667 19.8889ZM16.224 16.8942L12 12.6702V6.69021C15.0427 7.30754 17.3333 9.99688 17.3333 13.2222C17.3333 14.5809 16.9227 15.8409 16.224 16.8942ZM28 19.2222H21.3333V16.5555H28V19.2222ZM28 13.8889H21.3333V11.2222H28V13.8889ZM28 8.55554H21.3333V5.88888H28V8.55554Z" fill="white"/>
</svg>
