<svg width="24" height="25" viewBox="0 0 24 25" fill="none" xmlns="http://www.w3.org/2000/svg">
<g clip-path="url(#clip0_238_1153)">
<path d="M8.5 4.22223V2.22223C8.5 1.11923 9.397 0.222229 10.5 0.222229H13.5C14.603 0.222229 15.5 1.11923 15.5 2.22223V4.22223C15.5 5.32523 14.603 6.22223 13.5 6.22223H10.5C9.397 6.22223 8.5 5.32523 8.5 4.22223ZM13.5 18.2222H10.5C9.397 18.2222 8.5 19.1192 8.5 20.2222V22.2222C8.5 23.3252 9.397 24.2222 10.5 24.2222H13.5C14.603 24.2222 15.5 23.3252 15.5 22.2222V20.2222C15.5 19.1192 14.603 18.2222 13.5 18.2222ZM22 18.2222H19C17.897 18.2222 17 19.1192 17 20.2222V22.2222C17 23.3252 17.897 24.2222 19 24.2222H22C23.103 24.2222 24 23.3252 24 22.2222V20.2222C24 19.1192 23.103 18.2222 22 18.2222ZM5 18.2222H2C0.897 18.2222 0 19.1192 0 20.2222V22.2222C0 23.3252 0.897 24.2222 2 24.2222H5C6.103 24.2222 7 23.3252 7 22.2222V20.2222C7 19.1192 6.103 18.2222 5 18.2222ZM4.5 13.7222C4.5 13.4472 4.724 13.2222 5 13.2222H11V16.2222H13V13.2222H19C19.275 13.2222 19.5 13.4472 19.5 13.7222V16.2222H21.5V13.7222C21.5 12.3432 20.379 11.2222 19 11.2222H13V8.22223H11V11.2222H5C3.622 11.2222 2.5 12.3432 2.5 13.7222V16.2222H4.5V13.7222Z" fill="white"/>
</g>
<defs>
<clipPath id="clip0_238_1153">
<rect width="24" height="24" fill="white" transform="translate(0 0.222229)"/>
</clipPath>
</defs>
</svg>
