<svg width="24" height="25" viewBox="0 0 24 25" fill="none" xmlns="http://www.w3.org/2000/svg">
<g clip-path="url(#clip0_238_1171)">
<path d="M16.949 2.4944C15.628 1.1724 13.87 0.444397 12 0.444397C10.13 0.444397 8.37202 1.1724 7.05002 2.4944C4.32102 5.2234 4.32102 9.6644 7.05802 12.4014L9.55302 14.8414C10.228 15.5014 11.114 15.8314 12 15.8314C12.886 15.8314 13.772 15.5014 14.447 14.8414L16.949 12.3934C18.271 11.0714 19 9.3134 19 7.4434C19 5.5734 18.271 3.8174 16.949 2.4944ZM12 10.4344C10.343 10.4344 9.00002 9.0914 9.00002 7.4344C9.00002 5.7774 10.343 4.4344 12 4.4344C13.657 4.4344 15 5.7774 15 7.4344C15 9.0914 13.657 10.4344 12 10.4344ZM24 17.2064C24.002 17.5604 23.817 17.8884 23.515 18.0694L13.654 23.9864C13.144 24.2924 12.572 24.4454 12.001 24.4454C11.43 24.4454 10.857 24.2924 10.348 23.9864L0.485016 18.0694C0.182016 17.8874 -0.00198386 17.5594 1.61395e-05 17.2064C0.00201614 16.8534 0.190016 16.5274 0.495016 16.3494L5.35002 13.5074C5.45002 13.6174 5.55302 13.7264 5.65902 13.8324L8.15402 16.2714C9.18202 17.2774 10.549 17.8324 12 17.8324C13.451 17.8324 14.817 17.2774 15.846 16.2714L18.364 13.8084C18.462 13.7104 18.558 13.6094 18.651 13.5074L23.505 16.3484C23.81 16.5274 23.998 16.8544 24 17.2064Z" fill="white"/>
</g>
<defs>
<clipPath id="clip0_238_1171">
<rect width="24" height="24" fill="white" transform="translate(0 0.444397)"/>
</clipPath>
</defs>
</svg>
