<svg width="24" height="24" viewBox="0 0 24 24" fill="none" xmlns="http://www.w3.org/2000/svg">
<g clip-path="url(#clip0_238_1175)">
<path d="M24 10.9999V12.9999H8.964L12.207 16.2429L10.793 17.6569L6.55 13.4139C5.77 12.6339 5.77 11.3659 6.55 10.5859L10.793 6.34294L12.207 7.75694L8.964 10.9999H24ZM12 21.9999C6.486 21.9999 2 17.5139 2 11.9999C2 6.48594 6.486 1.99994 12 1.99994C16.469 1.99994 20.262 4.94694 21.539 8.99994H23.605C22.268 3.83294 17.579 -6.10352e-05 12 -6.10352e-05C5.383 -6.10352e-05 0 5.38294 0 11.9999C0 18.6169 5.383 23.9999 12 23.9999C17.579 23.9999 22.268 20.1669 23.605 14.9999H21.539C20.262 19.0529 16.469 21.9999 12 21.9999Z" fill="white"/>
</g>
<defs>
<clipPath id="clip0_238_1175">
<rect width="24" height="24" fill="white"/>
</clipPath>
</defs>
</svg>
