<svg width="24" height="25" viewBox="0 0 24 25" fill="none" xmlns="http://www.w3.org/2000/svg">
<g clip-path="url(#clip0_238_1167)">
<path d="M18 12.8889C14.686 12.8889 12 15.5749 12 18.8889C12 22.2029 14.686 24.8889 18 24.8889C21.314 24.8889 24 22.2029 24 18.8889C24 15.5749 21.314 12.8889 18 12.8889ZM22 19.8889H19V22.8889H17V19.8889H14V17.8889H17V14.8889H19V17.8889H22V19.8889ZM11.997 13.6129C10.758 15.0219 10 16.8649 10 18.8889H7L5.295 21.3889L4.707 20.9759C1.76 18.9049 0 15.5259 0 11.9369C0 5.84486 4.956 0.888855 11.048 0.888855C17.14 0.888855 22.096 5.84486 22.096 11.9369C22.096 11.9659 22.091 11.9939 22.091 12.0229C20.893 11.3079 19.497 10.8889 18 10.8889C15.976 10.8889 14.133 11.6459 12.724 12.8859C12.895 12.5919 13 12.2539 13 11.8889C13 11.1509 12.595 10.5129 12 10.1659V3.88885H10V10.1659C9.405 10.5119 9 11.1499 9 11.8889C9 12.9939 9.895 13.8889 11 13.8889C11.365 13.8889 11.702 13.7839 11.997 13.6129Z" fill="white"/>
</g>
<defs>
<clipPath id="clip0_238_1167">
<rect width="24" height="24" fill="white" transform="translate(0 0.888855)"/>
</clipPath>
</defs>
</svg>
