<svg width="24" height="25" viewBox="0 0 24 25" fill="none" xmlns="http://www.w3.org/2000/svg">
<g clip-path="url(#clip0_238_1149)">
<path d="M19 2.66669V0.666687H17V2.66669H15V0.666687H13V2.66669H11V0.666687H9V2.66669H7V0.666687H5V2.66669H3V21.6667C3 22.4623 3.31607 23.2254 3.87868 23.788C4.44129 24.3506 5.20435 24.6667 6 24.6667H18C18.7956 24.6667 19.5587 24.3506 20.1213 23.788C20.6839 23.2254 21 22.4623 21 21.6667V2.66669H19ZM13 17.6667H7V15.6667H13V17.6667ZM17 13.6667H7V11.6667H17V13.6667ZM17 9.66669H7V7.66669H17V9.66669Z" fill="white"/>
</g>
<defs>
<clipPath id="clip0_238_1149">
<rect width="24" height="24" fill="white" transform="translate(0 0.666687)"/>
</clipPath>
</defs>
</svg>
