<svg width="24" height="25" viewBox="0 0 24 25" fill="none" xmlns="http://www.w3.org/2000/svg">
<g clip-path="url(#clip0_238_1145)">
<path d="M21.0004 12.1111C21.0002 11.5593 20.95 11.0088 20.8504 10.4661L23.8934 8.71108L20.8934 3.51108L17.8494 5.27008C17.009 4.55101 16.0432 3.99302 15.0004 3.62408V0.111084H9.00042V3.62408C7.95768 3.99302 6.99187 4.55101 6.15142 5.27008L3.10742 3.51108L0.107422 8.71108L3.15042 10.4661C2.95053 11.5536 2.95053 12.6685 3.15042 13.7561L0.107422 15.5111L3.10742 20.7111L6.15142 18.9531C6.99195 19.6718 7.95775 20.2295 9.00042 20.5981V24.1111H15.0004V20.5981C16.0432 20.2291 17.009 19.6712 17.8494 18.9521L20.8934 20.7111L23.8934 15.5111L20.8504 13.7561C20.95 13.2134 21.0002 12.6628 21.0004 12.1111ZM15.0004 12.1111C15.0004 12.7044 14.8245 13.2844 14.4948 13.7778C14.1652 14.2711 13.6967 14.6557 13.1485 14.8827C12.6003 15.1098 11.9971 15.1692 11.4152 15.0534C10.8332 14.9377 10.2987 14.652 9.8791 14.2324C9.45954 13.8128 9.17382 13.2783 9.05807 12.6964C8.94231 12.1144 9.00172 11.5112 9.22878 10.963C9.45585 10.4149 9.84036 9.94632 10.3337 9.61668C10.8271 9.28703 11.4071 9.11108 12.0004 9.11108C12.7961 9.11108 13.5591 9.42715 14.1217 9.98976C14.6844 10.5524 15.0004 11.3154 15.0004 12.1111Z" fill="white"/>
</g>
<defs>
<clipPath id="clip0_238_1145">
<rect width="24" height="24" fill="white" transform="translate(0 0.111084)"/>
</clipPath>
</defs>
</svg>
