<svg width="26" height="18" viewBox="0 0 26 18" fill="none" xmlns="http://www.w3.org/2000/svg">
<path d="M2.5 0.25H11.25C11.7141 0.25 12.1592 0.434374 12.4874 0.762563C12.8156 1.09075 13 1.53587 13 2C13 2.46413 12.8156 2.90925 12.4874 3.23744C12.1592 3.56563 11.7141 3.75 11.25 3.75H2.5C2.03587 3.75 1.59075 3.56563 1.26256 3.23744C0.934374 2.90925 0.75 2.46413 0.75 2C0.75 1.53587 0.934374 1.09075 1.26256 0.762563C1.59075 0.434374 2.03587 0.25 2.5 0.25ZM14.75 14.25H23.5C23.9641 14.25 24.4092 14.4344 24.7374 14.7626C25.0656 15.0908 25.25 15.5359 25.25 16C25.25 16.4641 25.0656 16.9092 24.7374 17.2374C24.4092 17.5656 23.9641 17.75 23.5 17.75H14.75C14.2859 17.75 13.8408 17.5656 13.5126 17.2374C13.1844 16.9092 13 16.4641 13 16C13 15.5359 13.1844 15.0908 13.5126 14.7626C13.8408 14.4344 14.2859 14.25 14.75 14.25ZM2.5 7.25H23.5C23.9641 7.25 24.4092 7.43437 24.7374 7.76256C25.0656 8.09075 25.25 8.53587 25.25 9C25.25 9.46413 25.0656 9.90925 24.7374 10.2374C24.4092 10.5656 23.9641 10.75 23.5 10.75H2.5C2.03587 10.75 1.59075 10.5656 1.26256 10.2374C0.934374 9.90925 0.75 9.46413 0.75 9C0.75 8.53587 0.934374 8.09075 1.26256 7.76256C1.59075 7.43437 2.03587 7.25 2.5 7.25Z" fill="black"/>
</svg>
