<svg width="20" height="21" viewBox="0 0 20 21" fill="none" xmlns="http://www.w3.org/2000/svg">
<path d="M19.3197 14.4687L17.153 6.65956C16.6904 4.98908 15.6822 3.52135 14.2891 2.48997C12.896 1.45859 11.1979 0.922834 9.46508 0.967967C7.73229 1.0131 6.0644 1.63653 4.72684 2.73903C3.38928 3.84154 2.45893 5.35976 2.08385 7.05206L0.408019 14.5937C0.326929 14.9591 0.328907 15.338 0.413807 15.7025C0.498706 16.067 0.66436 16.4078 0.898547 16.6997C1.13273 16.9917 1.42948 17.2273 1.76689 17.3892C2.1043 17.5512 2.47376 17.6353 2.84802 17.6354H5.85385C6.04511 18.5773 6.55613 19.4241 7.3003 20.0324C8.04448 20.6406 8.97606 20.9729 9.93719 20.9729C10.8983 20.9729 11.8299 20.6406 12.5741 20.0324C13.3182 19.4241 13.8293 18.5773 14.0205 17.6354H16.9122C17.2973 17.6352 17.6771 17.5461 18.0221 17.3749C18.3671 17.2038 18.6678 16.9553 18.9009 16.6488C19.1341 16.3423 19.2932 15.986 19.366 15.6079C19.4388 15.2297 19.4224 14.8399 19.3197 14.4687ZM9.93719 19.3021C9.42197 19.2999 8.91999 19.1387 8.49994 18.8403C8.07988 18.542 7.76225 18.1212 7.59052 17.6354H12.2839C12.1121 18.1212 11.7945 18.542 11.3744 18.8403C10.9544 19.1387 10.4524 19.2999 9.93719 19.3021ZM17.5747 15.6396C17.4969 15.7426 17.3962 15.8261 17.2804 15.8832C17.1646 15.9404 17.0371 15.9697 16.908 15.9687H2.84802C2.72324 15.9687 2.60005 15.9407 2.48756 15.8867C2.37506 15.8327 2.27613 15.7541 2.19806 15.6568C2.12 15.5594 2.06479 15.4458 2.03651 15.3242C2.00823 15.2027 2.00761 15.0764 2.03469 14.9546L3.71052 7.4129C4.00581 6.08474 4.73661 4.8934 5.78673 4.02827C6.83686 3.16314 8.14604 2.67387 9.50616 2.63824C10.8663 2.60261 12.1993 3.02266 13.2933 3.83162C14.3873 4.64058 15.1794 5.79202 15.5439 7.1029L17.7105 14.9121C17.7459 15.0356 17.752 15.1656 17.7285 15.2918C17.7049 15.4181 17.6522 15.5372 17.5747 15.6396Z" fill="#0E263E"/>
</svg>
